<svg width="26" height="25" viewBox="0 0 26 25" fill="none" xmlns="http://www.w3.org/2000/svg">
<path d="M15.9338 19.7015L15.2678 17.1204C15.1845 16.8152 14.8792 16.6209 14.5739 16.7042C14.2687 16.7874 14.0744 17.0927 14.1576 17.398L14.8237 20.0068C14.1299 20.3953 13.6581 21.1169 13.6581 21.9495C13.6581 23.1984 14.6572 24.1975 15.9061 24.1975C17.155 24.1975 18.1541 23.1984 18.1541 21.9495C18.1818 20.7284 17.1827 19.7292 15.9338 19.7015Z" fill="#26C296"/>
<path d="M8.44231 13.3446L4.91766 14.5657C4.50136 14.0661 3.89079 13.7331 3.16921 13.7331C1.92032 13.7331 0.921204 14.7322 0.921204 15.9811C0.921204 17.23 1.92032 18.2291 3.16921 18.2291C4.4181 18.2291 5.41722 17.23 5.41722 15.9811C5.41722 15.8701 5.38946 15.7313 5.38946 15.6203L8.8031 14.4269C9.10839 14.3159 9.24716 14.0106 9.1639 13.7054C9.08064 13.4001 8.7476 13.2336 8.44231 13.3446Z" fill="#26C296"/>
<path d="M23.6498 10.9307C22.5952 10.9307 21.7349 11.6522 21.4851 12.5959H18.793C18.4877 12.5959 18.2102 12.8456 18.2102 13.1509C18.2102 13.4562 18.46 13.706 18.793 13.706H21.4573C21.7071 14.6773 22.5952 15.3712 23.6221 15.3712C24.871 15.3712 25.8701 14.3721 25.8701 13.1232C25.8701 11.8743 24.8987 10.9307 23.6498 10.9307Z" fill="#26C296"/>
<path d="M13.6601 16.0928C15.7446 16.0928 17.4345 14.4154 17.4345 12.3462C17.4345 10.2769 15.7446 8.59949 13.6601 8.59949C11.5755 8.59949 9.88562 10.2769 9.88562 12.3462C9.88562 14.4154 11.5755 16.0928 13.6601 16.0928Z" fill="#26C296"/>
<path d="M10.2463 8.15617L9.02511 7.24031C9.13613 6.96278 9.19163 6.68525 9.19163 6.37996C9.19163 5.13107 8.19252 4.13196 6.94362 4.13196C5.69473 4.13196 4.69562 5.13107 4.69562 6.37996C4.69562 7.62886 5.69473 8.62797 6.94362 8.62797C7.47093 8.62797 7.94274 8.4337 8.33128 8.15617L9.55242 9.09977C9.66343 9.18303 9.77445 9.21079 9.88546 9.21079C10.052 9.21079 10.2185 9.12753 10.3295 8.98876C10.5515 8.71123 10.496 8.35044 10.2463 8.15617Z" fill="#26C296"/>
<path d="M16.0214 8.37763C16.1047 8.43314 16.2157 8.46089 16.3267 8.46089C16.521 8.46089 16.7152 8.34988 16.8263 8.18336L18.6025 5.24153C18.8522 5.32479 19.102 5.38029 19.3518 5.38029C20.6007 5.38029 21.5998 4.38118 21.5998 3.13228C21.5998 1.88339 20.6007 0.884277 19.3518 0.884277C18.1029 0.884277 17.1038 1.88339 17.1038 3.13228C17.1038 3.68735 17.3258 4.1869 17.6589 4.6032L15.8549 7.60055C15.6606 7.85032 15.7439 8.21112 16.0214 8.37763Z" fill="#26C296"/>
</svg>
