<svg width="21" height="19" viewBox="0 0 21 19" fill="none" xmlns="http://www.w3.org/2000/svg">
<path d="M20.7889 5.59521L17.8279 1.03528C17.3246 0.265421 16.0513 0.265421 15.548 1.03528L12.5574 5.59521C12.2909 6.00975 12.2613 6.54273 12.4982 6.98688C12.735 7.43103 13.2088 7.69751 13.7122 7.69751H15.2815C14.8966 11.991 11.3138 15.3665 6.93148 15.3665C5.53982 15.3665 4.11854 15.0112 2.87492 14.3005C2.22351 13.9452 1.39443 14.1821 1.0095 14.8335C0.65418 15.4849 0.891059 16.314 1.54248 16.6989C3.20063 17.6168 5.03645 18.0906 6.93148 18.0906C12.8239 18.0906 17.6207 13.4714 18.0056 7.69751H19.6341C20.1375 7.69751 20.6113 7.43103 20.8481 6.98688C21.0554 6.54273 21.0554 6.00975 20.7889 5.59521Z" fill="#26C296"/>
</svg>
